# xmcd
#
# Track frame offsets: 
#        183
#        16610
#        31023
#        49338
#        60618
#        75865
#        94713
#        119325
#        133345
#        150405
#        168008
#        187500
#
# Disc length: 2816 seconds
#
# Revision: 4
# Processed by: cddbd v1.5.2PL0 Copyright (c) Steve Scherf et al.
# Submitted via: ExactAudioCopy v0.99pb5
#
DISCID=7b0afe0c
DTITLE=Nina Simone - My Baby Just Cares For Me
DYEAR=1900
DGENRE=Jazz
TTITLE0=My Baby Just Cares For Me
TTITLE1=Don't Smoke In Bed
TTITLE2=Mood Indigo
TTITLE3=He Needs Me
TTITLE4=Love Me Or Leave Me
TTITLE5=I Love You Porgy
TTITLE6=Good Bait
TTITLE7=Central Park Blues
TTITLE8=You'll Never Walk Alone
TTITLE9=Plain Gold Ring
TTITLE10=Little Girl Blue
TTITLE11=My Baby Just Cares For Me (Special Ext. Version)
EXTD=
EXTT0=
EXTT1=
EXTT2=
EXTT3=
EXTT4=
EXTT5=
EXTT6=
EXTT7=
EXTT8=
EXTT9=
EXTT10=
EXTT11=
PLAYORDER=
